<svg version="1.1" class="highcharts-root" xmlns="http://www.w3.org/2000/svg" width="959" height="400" viewBox="0 0 959 400"><desc>Created with Highcharts 7.2.2</desc><defs><linearGradient id="area-gradient" x1="0" y1="0" x2="0" y2="1"><stop offset="0"></stop><stop offset="1"></stop></linearGradient><clipPath id="highcharts-yodzdt2-1-"><rect x="0" y="0" width="909" height="352"></rect></clipPath><clipPath id="highcharts-yodzdt2-2-"><rect x="-99" y="-10" width="909" height="400"></rect></clipPath><clipPath id="highcharts-yodzdt2-3-"><rect x="0" y="0" width="909" height="375"></rect></clipPath><clipPath id="highcharts-yodzdt2-397-"><rect x="0" y="0" width="909" height="352"></rect></clipPath><filter id="drop-shadow-0" opacity="0.5"><feGaussianBlur in="SourceAlpha" stdDeviation="1"></feGaussianBlur><feOffset dx="1" dy="1"></feOffset><feComponentTransfer><feFuncA type="linear" slope="0.3"></feFuncA></feComponentTransfer><feMerge><feMergeNode></feMergeNode><feMergeNode in="SourceGraphic"></feMergeNode></feMerge></filter><style>.highcharts-tooltip-0{filter:url(#drop-shadow-0)}</style></defs><rect class="highcharts-background" x="0.5" y="0.5" width="957" height="398" rx="0" ry="0"></rect><rect class="highcharts-plot-background" x="0" y="10" width="909" height="352"></rect><g class="highcharts-plot-lines-0" data-z-index="0"><path class="highcharts-plot-line " d="M 0 209.5 L 909 209.5"></path></g><g class="highcharts-grid highcharts-xaxis-grid" data-z-index="1"><path data-z-index="1" class="highcharts-grid-line" d="M 67.5 10 L 67.5 362" opacity="1"></path><path data-z-index="1" class="highcharts-grid-line" d="M 207.5 10 L 207.5 362" opacity="1"></path><path data-z-index="1" class="highcharts-grid-line" d="M 347.5 10 L 347.5 362" opacity="1"></path><path data-z-index="1" class="highcharts-grid-line" d="M 487.5 10 L 487.5 362" opacity="1"></path><path data-z-index="1" class="highcharts-grid-line" d="M 628.5 10 L 628.5 362" opacity="1"></path><path data-z-index="1" class="highcharts-grid-line" d="M 768.5 10 L 768.5 362" opacity="1"></path></g><rect class="highcharts-plot-border" data-z-index="1" x="-0.5" y="9.5" width="910" height="353"></rect><g class="highcharts-grid highcharts-yaxis-grid" data-z-index="1"><path data-z-index="1" class="highcharts-grid-line" d="M 0 362.5 L 909 362.5" opacity="1"></path><path data-z-index="1" class="highcharts-grid-line" d="M 0 312.5 L 909 312.5" opacity="1"></path><path data-z-index="1" class="highcharts-grid-line" d="M 0 261.5 L 909 261.5" opacity="1"></path><path data-z-index="1" class="highcharts-grid-line" d="M 0 211.5 L 909 211.5" opacity="1"></path><path data-z-index="1" class="highcharts-grid-line" d="M 0 161.5 L 909 161.5" opacity="1"></path><path data-z-index="1" class="highcharts-grid-line" d="M 0 111.5 L 909 111.5" opacity="1"></path><path data-z-index="1" class="highcharts-grid-line" d="M 0 60.5 L 909 60.5" opacity="1"></path><path data-z-index="1" class="highcharts-grid-line" d="M 0 10.5 L 909 10.5" opacity="1"></path></g><g class="highcharts-axis highcharts-xaxis" data-z-index="2"><path class="highcharts-axis-line" d="M 0 362.5 L 909 362.5"></path><path class="highcharts-tick" d="M 67.5 362 L 67.5 367" opacity="1"></path><path class="highcharts-tick" d="M 207.5 362 L 207.5 367" opacity="1"></path><path class="highcharts-tick" d="M 347.5 362 L 347.5 367" opacity="1"></path><path class="highcharts-tick" d="M 487.5 362 L 487.5 367" opacity="1"></path><path class="highcharts-tick" d="M 628.5 362 L 628.5 367" opacity="1"></path><path class="highcharts-tick" d="M 768.5 362 L 768.5 367" opacity="1"></path></g><g class="highcharts-axis highcharts-yaxis" data-z-index="2"><path class="highcharts-axis-line" d="M 959 10 L 959 362"></path></g><path class="highcharts-crosshair highcharts-crosshair-thin undefined" data-z-index="2" visibility="hidden" d="M 663.5 10 L 663.5 362"></path><g class="highcharts-series-group" data-z-index="3"><g data-z-index="0.1" class="highcharts-series highcharts-series-0 highcharts-area-series highcharts-color-0" transform="translate(0,10) scale(1 1)" clip-path="url(#highcharts-yodzdt2-397-)"><path d="M 0 259.8577142857142 L 2.336760929605 242.32057142857155 L 4.6735218497021 238.75028571428567 L 7.0102827793071 240.44114285714312 L 9.3470436994042 253.86742857142806 L 11.683804629009 259.3988571428573 L 14.020565549106 254.2760000000004 L 16.357326478711 270.8577142857142 L 18.694087408316 268.23028571428546 L 21.030848328413 277.88514285714297 L 23.367609258018 290.1799999999998 L 25.704370178115 276.75999999999954 L 28.04113110772 274.84285714285716 L 30.377892027818 268.7205714285716 L 32.714652957423 271.1719999999999 L 35.05141387752 251.89371428571417 L 37.388174807125 244.58342857142895 L 39.72493573673 252.27085714285724 L 42.061696656827 247.7577142857142 L 44.398457586432 266.9668571428567 L 46.735218506529 264.8045714285719 L 49.071979436134 257.8902857142861 L 51.408740356231 270.2731428571426 L 53.745501285836 264.5405714285718 L 56.082262215441 263.2645714285714 L 58.419023135538 265.69085714285745 L 60.755784065143 278.2874285714283 L 63.09254498524 275.22000000000025 L 65.429305914845 262.2022857142854 L 67.766066834942 260.8382857142853 L 70.102827764547 266.3194285714289 L 72.439588684644 270.48685714285693 L 74.776349614249 270.09085714285743 L 77.113110543854 283.02057142857154 L 79.449871463951 279.0857142857143 L 81.786632393556 278.5640000000001 L 84.123393313653 280.3805714285711 L 86.460154243258 290.23028571428546 L 88.796915163356 287.9422857142858 L 91.13367609296 282.0211428571429 L 93.470437022565 277.2942857142855 L 95.807197942663 274.2771428571431 L 98.143958872268 264.8297142857141 L 100.48071979236 248.8702857142859 L 102.81748072197 250.15885714285687 L 105.15424164207 244.09942857142866 L 107.49100257167 251.26514285714273 L 109.82776349177 248.0971428571433 L 112.16452442137 248.6565714285715 L 114.50128535098 255.68400000000028 L 116.83804627108 262.0451428571425 L 119.17480720068 257.0102857142852 L 121.51156812078 244.6085714285712 L 123.84832905038 232.8857142857143 L 126.18508997048 223.07999999999979 L 128.52185090009 220.77314285714257 L 130.85861182969 217.63028571428544 L 133.19537274979 217.02057142857157 L 135.53213367939 217.6239999999996 L 137.86889459949 209.81714285714241 L 140.20565552909 200.52057142857157 L 142.54241644919 195.44800000000032 L 144.8791773788 191.7959999999995 L 147.21593829889 188.7788571428571 L 149.5526992285 191.27428571428527 L 151.8894601581 190.17428571428525 L 154.2262210782 191.40628571428584 L 156.56298200781 191.19885714285732 L 158.8997429279 188.32000000000022 L 161.23650385751 187.38342857142894 L 163.5732647776 189.7280000000001 L 165.91002570721 186.76742857142807 L 168.24678663681 195.91314285714304 L 170.58354755691 191.91542857142838 L 172.92030848652 186.98114285714246 L 175.25706940661 184.64285714285714 L 177.59383033622 188.72857142857143 L 179.93059125632 177.64685714285764 L 182.26735218592 178.08057142857112 L 184.60411310602 183.64342857142847 L 186.94087403562 181.26742857142807 L 189.27763496523 180.21142857142902 L 191.61439588533 182.89542857142817 L 193.95115681493 185.1959999999995 L 196.28791773503 190.62057142857157 L 198.62467866463 189.64000000000047 L 200.96143958473 197.32742857142875 L 203.29820051433 192.6382857142853 L 205.63496144394 190.43199999999945 L 207.97172236404 183.06514285714272 L 210.30848329364 180.31200000000038 L 212.64524421374 180.2365714285713 L 214.98200514334 176.82342857142825 L 217.31876606344 181.4057142857145 L 219.65552699305 164.849142857143 L 221.99228791314 168.7085714285712 L 224.32904884275 166.06228571428605 L 226.66580977235 163.79942857142868 L 229.00257069245 159.2297142857141 L 231.33933162205 158.5194285714289 L 233.67609254215 156.54571428571384 L 236.01285347176 159.36800000000056 L 238.34961439185 157.80914285714255 L 240.68637532146 157.8971428571433 L 243.02313625106 162.53599999999994 L 245.35989717116 162.59885714285733 L 247.69665810077 163.4788571428571 L 250.03341902086 157.35657142857153 L 252.37017995047 161.59942857142866 L 254.70694087057 167.7028571428567 L 257.04370180017 168.60799999999986 L 259.38046272027 167.49542857142816 L 261.71722364987 166.43942857142912 L 264.05398457948 168.2874285714283 L 266.39074549957 163.9 L 268.72750642918 163.12685714285743 L 271.06426734928 157.43199999999945 L 273.40102827888 154.77314285714257 L 275.73778919898 146.09885714285733 L 278.07455012858 157.52000000000024 L 280.41131105819 148.31142857142902 L 282.74807197829 146.45714285714286 L 285.08483290789 140.57371428571392 L 287.42159382799 130.76800000000054 L 289.75835475759 127.59371428571416 L 292.09511567769 126.04742857142898 L 294.43187660729 122.05600000000018 L 296.76863752739 119.58571428571429 L 299.105398457 118.05199999999968 L 301.4421593866 118.19028571428612 L 303.7789203067 112.61485714285706 L 306.1156812363 112.36971428571456 L 308.4524421564 105.92057142857158 L 310.78920308601 104.40571428571451 L 313.1259640061 109.51599999999974 L 315.46272493571 112.58342857142895 L 317.79948586531 109.2519999999997 L 320.13624678541 110.65371428571484 L 322.47300771502 105.84514285714249 L 324.80976863511 101.53942857142911 L 327.14652956472 105.67542857142908 L 329.48329048481 104.68228571428628 L 331.82005141442 102.07371428571392 L 334.15681234402 102.72742857142876 L 336.49357326412 99.57828571428576 L 338.83033419373 99.42114285714291 L 341.16709511382 91.84685714285763 L 343.50385604343 84.22857142857146 L 345.84061696353 84.68114285714245 L 348.17737789313 82.99028571428613 L 350.51413881323 78.09371428571416 L 352.85089974283 73.80685714285721 L 355.18766067244 81.41885714285758 L 357.52442159253 79.87257142857123 L 359.86118252214 78.78514285714294 L 362.19794344224 79.98571428571427 L 364.53470437184 79.501714285714 L 366.87146529194 78.47714285714306 L 369.20822622154 73.17828571428578 L 371.54498715115 77.82971428571409 L 373.88174807125 84.78799999999961 L 376.21850900085 85.12742857142877 L 378.55526992095 85.21542857142839 L 380.89203085055 84.19085714285745 L 383.22879177065 85.98857142857099 L 385.56555270026 85.16514285714271 L 387.90231362035 86.37828571428577 L 390.23907454996 83.2354285714286 L 392.57583547956 79.11828571428623 L 394.91259639966 81.80228571428535 L 397.24935732926 87.93085714285678 L 399.58611824936 89.13771428571397 L 401.92287917897 95.54285714285714 L 404.25964009906 98.04457142857115 L 406.59640102867 94.46171428571472 L 408.93316195827 98.03199999999944 L 411.26992287837 93.66342857142871 L 413.60668380798 87.42800000000011 L 415.94344472807 86.28400000000028 L 418.28020565768 87.42800000000011 L 420.61696657777 86.44742857142899 L 422.95372750738 86.93142857142811 L 425.29048842748 86.34057142857182 L 427.62724935708 92.28685714285695 L 429.96401028669 95.44857142857165 L 432.30077120678 90.54571428571381 L 434.63753213639 90.67142857142858 L 436.97429305649 89.62171428571423 L 439.31105398609 92.93428571428592 L 441.64781490619 92.38114285714244 L 443.98457583579 87.10114285714269 L 446.3213367654 88.01885714285754 L 448.6580976855 86.86228571428603 L 450.9948586151 84.39200000000017 L 453.3316195352 81.49428571428547 L 455.6683804648 78.10628571428583 L 458.0051413849 76.6417142857145 L 460.3419023145 74.81885714285755 L 462.6786632346 77.06914285714322 L 465.01542416421 77.82971428571409 L 467.35218509381 77.01257142857173 L 469.68894601391 84.81314285714302 L 472.02570694351 83.73828571428533 L 474.36246786361 84.63085714285677 L 476.69922879322 83.85142857142836 L 479.03598971331 83.80742857142855 L 481.37275064292 85.62399999999957 L 483.70951157252 82.98400000000026 L 486.04627249262 81.92171428571424 L 488.38303342223 82.85199999999969 L 490.71979434232 78.65314285714237 L 493.05655527193 81.74571428571386 L 495.39331619202 81.82742857142875 L 497.73007712163 82.78914285714234 L 500.06683804173 82.2422857142858 L 502.40359897133 84.02742857142874 L 504.74035990094 80.2748571428566 L 507.07712082103 83.92057142857158 L 509.41388175064 81.82114285714289 L 511.75064267074 80.46971428571459 L 514.08740360034 85.80000000000001 L 516.42416452044 81.68914285714231 L 518.76092545004 79.67142857142858 L 521.09768637965 72.39885714285731 L 523.43444729974 66.79200000000014 L 525.77120822935 65.40914285714257 L 528.10796914945 66.35828571428556 L 530.44473007905 62.85085714285702 L 532.78149099915 62.56800000000055 L 535.11825192875 61.618857142857564 L 537.45501284885 59.14228571428583 L 539.79177377846 60.07257142857128 L 542.12853470806 53.95657142857152 L 544.46529562816 53.5102857142852 L 546.80205655776 54.182857142857586 L 549.13881747786 54.924571428570914 L 551.47557840747 54.729714285714124 L 553.81233932756 56.32628571428609 L 556.14910025717 57.42628571428611 L 558.48586118677 56.879428571428434 L 560.82262210687 56.54628571428515 L 563.15938303647 54.082285714286286 L 565.49614395657 52.80628571428588 L 567.83290488618 52.22800000000012 L 570.16966580627 51.379428571428434 L 572.50642673588 52.1211428571429 L 574.84318765598 57.514285714285734 L 577.17994858558 57.57714285714309 L 579.51670951519 54.05085714285701 L 581.85347043528 53.06400000000008 L 584.19023136489 51.09657142857196 L 586.52699228498 54.61657142857109 L 588.86375321459 58.15542857142884 L 591.20051413469 58.7337142857146 L 593.53727506429 61.85771428571422 L 595.8740359939 63.09599999999949 L 598.21079691399 59.41257142857171 L 600.5475578436 59.092000000000155 L 602.8843187637 59.43771428571398 L 605.2210796933 58.0171428571424 L 607.5578406134 56.7662857142854 L 609.894601543 58.425714285714776 L 612.23136247261 58.32514285714342 L 614.56812339271 58.14914285714298 L 616.90488432231 57.17485714285658 L 619.24164524241 54.15771428571418 L 621.57840617201 55.7354285714286 L 623.91516709211 54.082285714286286 L 626.25192802171 53.265142857142735 L 628.58868894181 51.8822857142863 L 630.92544987142 55.82342857142828 L 633.26221080102 55.68514285714298 L 635.59897172112 52.73714285714266 L 637.93573265072 51.35428571428616 L 640.27249357082 52.98857142857099 L 642.60925450043 57.26914285714321 L 644.94601542052 57.3634285714287 L 647.28277635013 54.70457142857185 L 649.61953727973 51.706285714285855 L 651.95629819983 50.96457142857139 L 654.29305912943 46.68400000000025 L 656.62982004953 47.004571428571865 L 658.96658097914 43.7422857142858 L 661.30334189923 47.17428571428525 L 663.64010282884 48.45657142857152 L 665.97686374894 48.70171428571399 L 668.31362467854 47.11771428571376 L 670.65038560815 48.93428571428598 L 672.98714652824 49.21714285714239 L 675.32390745785 49.53142857142814 L 677.66066837795 46.99200000000013 L 679.99742930755 43.6417142857145 L 682.33419022765 44.10057142857136 L 684.67095115725 42.856000000000165 L 687.00771208686 43.33371428571462 L 689.34447300695 41.441714285714454 L 691.68123393656 42.42228571428558 L 694.01799485666 40.8822857142863 L 696.35475578626 34.69714285714332 L 698.69151670636 33.69771428571465 L 701.02827763596 35.28799999999961 L 703.36503855606 37.431428571428114 L 705.70179948567 36.5137142857144 L 708.03856041527 34.250857142857 L 710.37532133537 33.6348571428573 L 712.71208226497 27.02857142857141 L 715.04884318507 29.951428571428323 L 717.38560411467 29.66857142857191 L 719.72236503477 28.669142857143243 L 722.05912596438 26.82114285714289 L 724.39588689398 25.02342857142827 L 726.73264781408 23.634285714285966 L 729.06940874368 24.042857142857144 L 731.40616966378 27.638285714285303 L 733.74293059339 25.406857142857177 L 736.07969151348 23.030857142856803 L 738.41645244309 22.301714285714013 L 740.75321336319 23.91714285714238 L 743.08997429279 24.03657142857128 L 745.4267352224 25.293714285714145 L 747.76349614249 30.114857142857034 L 750.1002570721 27.66342857142871 L 752.43701799219 27.764000000000067 L 754.7737789218 26.31828571428622 L 757.1105398419 28.08457142857162 L 759.4473007715 28.436571428571312 L 761.78406170111 29.95771428571419 L 764.1208226212 29.63085714285677 L 766.45758355081 29.228571428571456 L 768.79434447091 27.7577142857142 L 771.13110540051 28.147428571428975 L 773.46786632061 30.334857142857288 L 775.80462725021 28.41142857142904 L 778.14138817031 33.19485714285685 L 780.47814909991 32.27085714285727 L 782.81491002952 29.065142857142746 L 785.15167094962 24.797142857143342 L 787.48843187922 24.33828571428529 L 789.82519279932 23.74114285714313 L 792.16195372892 21.748571428571665 L 794.49871464902 25.3565714285715 L 796.83547557863 28.89542857142817 L 799.17223650823 30.347428571428964 L 801.50899742833 32.13885714285664 L 803.84575835793 30.165142857142712 L 806.18251927803 30.001714285714 L 808.51928020764 28.574857142856615 L 810.85604112773 30.843999999999824 L 813.19280205734 30.831428571428148 L 815.52956297743 30.21542857142839 L 817.86632390704 27.31771428571375 L 820.20308483664 28.687999999999647 L 822.53984575674 28.00285714285667 L 824.87660668635 25.32514285714342 L 827.21336760644 22.056571428571544 L 829.55012853605 22.641142857143166 L 831.88688945615 21.779999999999802 L 834.22365038575 21.604000000000497 L 836.56041131536 16.952571428571048 L 838.89717223545 16.952571428571048 L 841.23393316506 14.501142857142668 L 843.57069408515 16.99028571428613 L 845.90745501476 18.14685714285764 L 848.24421593486 20.931428571428114 L 850.58097686446 22.113142857143032 L 852.91773778456 22.47142857142859 L 855.25449871416 21.05714285714288 L 857.59125964377 17.430285714285446 L 859.92802056387 14.526285714286075 L 862.26478149347 13.97314285714259 L 864.60154241357 14.658285714285512 L 866.93830334317 14.52000000000021 L 869.27506426327 20.02000000000021 L 871.61182519288 22.74800000000033 L 873.94858612248 23.665714285714046 L 876.28534704258 22.440000000000452 L 878.62210797218 22.6348571428573 L 880.95886889228 21.23942857142913 L 883.29562982188 23.433142857143253 L 885.63239074198 23.709714285713858 L 887.96915167159 25.689714285714786 L 890.30591259168 29.03371428571461 L 892.64267352129 31.617142857142426 L 894.97943445089 35.43885714285665 L 897.31619537099 42.51657142857107 L 899.6529563006 39.91428571428571 L 901.98971722069 40.19085714285745 L 904.3264781503 41.78742857142828 L 906.66323907039 42.076571428571754 L 909 43.15771428571418 L 909 352 L 906.66323907039 352 L 904.3264781503 352 L 901.98971722069 352 L 899.6529563006 352 L 897.31619537099 352 L 894.97943445089 352 L 892.64267352129 352 L 890.30591259168 352 L 887.96915167159 352 L 885.63239074198 352 L 883.29562982188 352 L 880.95886889228 352 L 878.62210797218 352 L 876.28534704258 352 L 873.94858612248 352 L 871.61182519288 352 L 869.27506426327 352 L 866.93830334317 352 L 864.60154241357 352 L 862.26478149347 352 L 859.92802056387 352 L 857.59125964377 352 L 855.25449871416 352 L 852.91773778456 352 L 850.58097686446 352 L 848.24421593486 352 L 845.90745501476 352 L 843.57069408515 352 L 841.23393316506 352 L 838.89717223545 352 L 836.56041131536 352 L 834.22365038575 352 L 831.88688945615 352 L 829.55012853605 352 L 827.21336760644 352 L 824.87660668635 352 L 822.53984575674 352 L 820.20308483664 352 L 817.86632390704 352 L 815.52956297743 352 L 813.19280205734 352 L 810.85604112773 352 L 808.51928020764 352 L 806.18251927803 352 L 803.84575835793 352 L 801.50899742833 352 L 799.17223650823 352 L 796.83547557863 352 L 794.49871464902 352 L 792.16195372892 352 L 789.82519279932 352 L 787.48843187922 352 L 785.15167094962 352 L 782.81491002952 352 L 780.47814909991 352 L 778.14138817031 352 L 775.80462725021 352 L 773.46786632061 352 L 771.13110540051 352 L 768.79434447091 352 L 766.45758355081 352 L 764.1208226212 352 L 761.78406170111 352 L 759.4473007715 352 L 757.1105398419 352 L 754.7737789218 352 L 752.43701799219 352 L 750.1002570721 352 L 747.76349614249 352 L 745.4267352224 352 L 743.08997429279 352 L 740.75321336319 352 L 738.41645244309 352 L 736.07969151348 352 L 733.74293059339 352 L 731.40616966378 352 L 729.06940874368 352 L 726.73264781408 352 L 724.39588689398 352 L 722.05912596438 352 L 719.72236503477 352 L 717.38560411467 352 L 715.04884318507 352 L 712.71208226497 352 L 710.37532133537 352 L 708.03856041527 352 L 705.70179948567 352 L 703.36503855606 352 L 701.02827763596 352 L 698.69151670636 352 L 696.35475578626 352 L 694.01799485666 352 L 691.68123393656 352 L 689.34447300695 352 L 687.00771208686 352 L 684.67095115725 352 L 682.33419022765 352 L 679.99742930755 352 L 677.66066837795 352 L 675.32390745785 352 L 672.98714652824 352 L 670.65038560815 352 L 668.31362467854 352 L 665.97686374894 352 L 663.64010282884 352 L 661.30334189923 352 L 658.96658097914 352 L 656.62982004953 352 L 654.29305912943 352 L 651.95629819983 352 L 649.61953727973 352 L 647.28277635013 352 L 644.94601542052 352 L 642.60925450043 352 L 640.27249357082 352 L 637.93573265072 352 L 635.59897172112 352 L 633.26221080102 352 L 630.92544987142 352 L 628.58868894181 352 L 626.25192802171 352 L 623.91516709211 352 L 621.57840617201 352 L 619.24164524241 352 L 616.90488432231 352 L 614.56812339271 352 L 612.23136247261 352 L 609.894601543 352 L 607.5578406134 352 L 605.2210796933 352 L 602.8843187637 352 L 600.5475578436 352 L 598.21079691399 352 L 595.8740359939 352 L 593.53727506429 352 L 591.20051413469 352 L 588.86375321459 352 L 586.52699228498 352 L 584.19023136489 352 L 581.85347043528 352 L 579.51670951519 352 L 577.17994858558 352 L 574.84318765598 352 L 572.50642673588 352 L 570.16966580627 352 L 567.83290488618 352 L 565.49614395657 352 L 563.15938303647 352 L 560.82262210687 352 L 558.48586118677 352 L 556.14910025717 352 L 553.81233932756 352 L 551.47557840747 352 L 549.13881747786 352 L 546.80205655776 352 L 544.46529562816 352 L 542.12853470806 352 L 539.79177377846 352 L 537.45501284885 352 L 535.11825192875 352 L 532.78149099915 352 L 530.44473007905 352 L 528.10796914945 352 L 525.77120822935 352 L 523.43444729974 352 L 521.09768637965 352 L 518.76092545004 352 L 516.42416452044 352 L 514.08740360034 352 L 511.75064267074 352 L 509.41388175064 352 L 507.07712082103 352 L 504.74035990094 352 L 502.40359897133 352 L 500.06683804173 352 L 497.73007712163 352 L 495.39331619202 352 L 493.05655527193 352 L 490.71979434232 352 L 488.38303342223 352 L 486.04627249262 352 L 483.70951157252 352 L 481.37275064292 352 L 479.03598971331 352 L 476.69922879322 352 L 474.36246786361 352 L 472.02570694351 352 L 469.68894601391 352 L 467.35218509381 352 L 465.01542416421 352 L 462.6786632346 352 L 460.3419023145 352 L 458.0051413849 352 L 455.6683804648 352 L 453.3316195352 352 L 450.9948586151 352 L 448.6580976855 352 L 446.3213367654 352 L 443.98457583579 352 L 441.64781490619 352 L 439.31105398609 352 L 436.97429305649 352 L 434.63753213639 352 L 432.30077120678 352 L 429.96401028669 352 L 427.62724935708 352 L 425.29048842748 352 L 422.95372750738 352 L 420.61696657777 352 L 418.28020565768 352 L 415.94344472807 352 L 413.60668380798 352 L 411.26992287837 352 L 408.93316195827 352 L 406.59640102867 352 L 404.25964009906 352 L 401.92287917897 352 L 399.58611824936 352 L 397.24935732926 352 L 394.91259639966 352 L 392.57583547956 352 L 390.23907454996 352 L 387.90231362035 352 L 385.56555270026 352 L 383.22879177065 352 L 380.89203085055 352 L 378.55526992095 352 L 376.21850900085 352 L 373.88174807125 352 L 371.54498715115 352 L 369.20822622154 352 L 366.87146529194 352 L 364.53470437184 352 L 362.19794344224 352 L 359.86118252214 352 L 357.52442159253 352 L 355.18766067244 352 L 352.85089974283 352 L 350.51413881323 352 L 348.17737789313 352 L 345.84061696353 352 L 343.50385604343 352 L 341.16709511382 352 L 338.83033419373 352 L 336.49357326412 352 L 334.15681234402 352 L 331.82005141442 352 L 329.48329048481 352 L 327.14652956472 352 L 324.80976863511 352 L 322.47300771502 352 L 320.13624678541 352 L 317.79948586531 352 L 315.46272493571 352 L 313.1259640061 352 L 310.78920308601 352 L 308.4524421564 352 L 306.1156812363 352 L 303.7789203067 352 L 301.4421593866 352 L 299.105398457 352 L 296.76863752739 352 L 294.43187660729 352 L 292.09511567769 352 L 289.75835475759 352 L 287.42159382799 352 L 285.08483290789 352 L 282.74807197829 352 L 280.41131105819 352 L 278.07455012858 352 L 275.73778919898 352 L 273.40102827888 352 L 271.06426734928 352 L 268.72750642918 352 L 266.39074549957 352 L 264.05398457948 352 L 261.71722364987 352 L 259.38046272027 352 L 257.04370180017 352 L 254.70694087057 352 L 252.37017995047 352 L 250.03341902086 352 L 247.69665810077 352 L 245.35989717116 352 L 243.02313625106 352 L 240.68637532146 352 L 238.34961439185 352 L 236.01285347176 352 L 233.67609254215 352 L 231.33933162205 352 L 229.00257069245 352 L 226.66580977235 352 L 224.32904884275 352 L 221.99228791314 352 L 219.65552699305 352 L 217.31876606344 352 L 214.98200514334 352 L 212.64524421374 352 L 210.30848329364 352 L 207.97172236404 352 L 205.63496144394 352 L 203.29820051433 352 L 200.96143958473 352 L 198.62467866463 352 L 196.28791773503 352 L 193.95115681493 352 L 191.61439588533 352 L 189.27763496523 352 L 186.94087403562 352 L 184.60411310602 352 L 182.26735218592 352 L 179.93059125632 352 L 177.59383033622 352 L 175.25706940661 352 L 172.92030848652 352 L 170.58354755691 352 L 168.24678663681 352 L 165.91002570721 352 L 163.5732647776 352 L 161.23650385751 352 L 158.8997429279 352 L 156.56298200781 352 L 154.2262210782 352 L 151.8894601581 352 L 149.5526992285 352 L 147.21593829889 352 L 144.8791773788 352 L 142.54241644919 352 L 140.20565552909 352 L 137.86889459949 352 L 135.53213367939 352 L 133.19537274979 352 L 130.85861182969 352 L 128.52185090009 352 L 126.18508997048 352 L 123.84832905038 352 L 121.51156812078 352 L 119.17480720068 352 L 116.83804627108 352 L 114.50128535098 352 L 112.16452442137 352 L 109.82776349177 352 L 107.49100257167 352 L 105.15424164207 352 L 102.81748072197 352 L 100.48071979236 352 L 98.143958872268 352 L 95.807197942663 352 L 93.470437022565 352 L 91.13367609296 352 L 88.796915163356 352 L 86.460154243258 352 L 84.123393313653 352 L 81.786632393556 352 L 79.449871463951 352 L 77.113110543854 352 L 74.776349614249 352 L 72.439588684644 352 L 70.102827764547 352 L 67.766066834942 352 L 65.429305914845 352 L 63.09254498524 352 L 60.755784065143 352 L 58.419023135538 352 L 56.082262215441 352 L 53.745501285836 352 L 51.408740356231 352 L 49.071979436134 352 L 46.735218506529 352 L 44.398457586432 352 L 42.061696656827 352 L 39.72493573673 352 L 37.388174807125 352 L 35.05141387752 352 L 32.714652957423 352 L 30.377892027818 352 L 28.04113110772 352 L 25.704370178115 352 L 23.367609258018 352 L 21.030848328413 352 L 18.694087408316 352 L 16.357326478711 352 L 14.020565549106 352 L 11.683804629009 352 L 9.3470436994042 352 L 7.0102827793071 352 L 4.6735218497021 352 L 2.336760929605 352 L 0 352" class="highcharts-area" data-z-index="0"></path><path d="M 0 259.8577142857142 L 2.336760929605 242.32057142857155 L 4.6735218497021 238.75028571428567 L 7.0102827793071 240.44114285714312 L 9.3470436994042 253.86742857142806 L 11.683804629009 259.3988571428573 L 14.020565549106 254.2760000000004 L 16.357326478711 270.8577142857142 L 18.694087408316 268.23028571428546 L 21.030848328413 277.88514285714297 L 23.367609258018 290.1799999999998 L 25.704370178115 276.75999999999954 L 28.04113110772 274.84285714285716 L 30.377892027818 268.7205714285716 L 32.714652957423 271.1719999999999 L 35.05141387752 251.89371428571417 L 37.388174807125 244.58342857142895 L 39.72493573673 252.27085714285724 L 42.061696656827 247.7577142857142 L 44.398457586432 266.9668571428567 L 46.735218506529 264.8045714285719 L 49.071979436134 257.8902857142861 L 51.408740356231 270.2731428571426 L 53.745501285836 264.5405714285718 L 56.082262215441 263.2645714285714 L 58.419023135538 265.69085714285745 L 60.755784065143 278.2874285714283 L 63.09254498524 275.22000000000025 L 65.429305914845 262.2022857142854 L 67.766066834942 260.8382857142853 L 70.102827764547 266.3194285714289 L 72.439588684644 270.48685714285693 L 74.776349614249 270.09085714285743 L 77.113110543854 283.02057142857154 L 79.449871463951 279.0857142857143 L 81.786632393556 278.5640000000001 L 84.123393313653 280.3805714285711 L 86.460154243258 290.23028571428546 L 88.796915163356 287.9422857142858 L 91.13367609296 282.0211428571429 L 93.470437022565 277.2942857142855 L 95.807197942663 274.2771428571431 L 98.143958872268 264.8297142857141 L 100.48071979236 248.8702857142859 L 102.81748072197 250.15885714285687 L 105.15424164207 244.09942857142866 L 107.49100257167 251.26514285714273 L 109.82776349177 248.0971428571433 L 112.16452442137 248.6565714285715 L 114.50128535098 255.68400000000028 L 116.83804627108 262.0451428571425 L 119.17480720068 257.0102857142852 L 121.51156812078 244.6085714285712 L 123.84832905038 232.8857142857143 L 126.18508997048 223.07999999999979 L 128.52185090009 220.77314285714257 L 130.85861182969 217.63028571428544 L 133.19537274979 217.02057142857157 L 135.53213367939 217.6239999999996 L 137.86889459949 209.81714285714241 L 140.20565552909 200.52057142857157 L 142.54241644919 195.44800000000032 L 144.8791773788 191.7959999999995 L 147.21593829889 188.7788571428571 L 149.5526992285 191.27428571428527 L 151.8894601581 190.17428571428525 L 154.2262210782 191.40628571428584 L 156.56298200781 191.19885714285732 L 158.8997429279 188.32000000000022 L 161.23650385751 187.38342857142894 L 163.5732647776 189.7280000000001 L 165.91002570721 186.76742857142807 L 168.24678663681 195.91314285714304 L 170.58354755691 191.91542857142838 L 172.92030848652 186.98114285714246 L 175.25706940661 184.64285714285714 L 177.59383033622 188.72857142857143 L 179.93059125632 177.64685714285764 L 182.26735218592 178.08057142857112 L 184.60411310602 183.64342857142847 L 186.94087403562 181.26742857142807 L 189.27763496523 180.21142857142902 L 191.61439588533 182.89542857142817 L 193.95115681493 185.1959999999995 L 196.28791773503 190.62057142857157 L 198.62467866463 189.64000000000047 L 200.96143958473 197.32742857142875 L 203.29820051433 192.6382857142853 L 205.63496144394 190.43199999999945 L 207.97172236404 183.06514285714272 L 210.30848329364 180.31200000000038 L 212.64524421374 180.2365714285713 L 214.98200514334 176.82342857142825 L 217.31876606344 181.4057142857145 L 219.65552699305 164.849142857143 L 221.99228791314 168.7085714285712 L 224.32904884275 166.06228571428605 L 226.66580977235 163.79942857142868 L 229.00257069245 159.2297142857141 L 231.33933162205 158.5194285714289 L 233.67609254215 156.54571428571384 L 236.01285347176 159.36800000000056 L 238.34961439185 157.80914285714255 L 240.68637532146 157.8971428571433 L 243.02313625106 162.53599999999994 L 245.35989717116 162.59885714285733 L 247.69665810077 163.4788571428571 L 250.03341902086 157.35657142857153 L 252.37017995047 161.59942857142866 L 254.70694087057 167.7028571428567 L 257.04370180017 168.60799999999986 L 259.38046272027 167.49542857142816 L 261.71722364987 166.43942857142912 L 264.05398457948 168.2874285714283 L 266.39074549957 163.9 L 268.72750642918 163.12685714285743 L 271.06426734928 157.43199999999945 L 273.40102827888 154.77314285714257 L 275.73778919898 146.09885714285733 L 278.07455012858 157.52000000000024 L 280.41131105819 148.31142857142902 L 282.74807197829 146.45714285714286 L 285.08483290789 140.57371428571392 L 287.42159382799 130.76800000000054 L 289.75835475759 127.59371428571416 L 292.09511567769 126.04742857142898 L 294.43187660729 122.05600000000018 L 296.76863752739 119.58571428571429 L 299.105398457 118.05199999999968 L 301.4421593866 118.19028571428612 L 303.7789203067 112.61485714285706 L 306.1156812363 112.36971428571456 L 308.4524421564 105.92057142857158 L 310.78920308601 104.40571428571451 L 313.1259640061 109.51599999999974 L 315.46272493571 112.58342857142895 L 317.79948586531 109.2519999999997 L 320.13624678541 110.65371428571484 L 322.47300771502 105.84514285714249 L 324.80976863511 101.53942857142911 L 327.14652956472 105.67542857142908 L 329.48329048481 104.68228571428628 L 331.82005141442 102.07371428571392 L 334.15681234402 102.72742857142876 L 336.49357326412 99.57828571428576 L 338.83033419373 99.42114285714291 L 341.16709511382 91.84685714285763 L 343.50385604343 84.22857142857146 L 345.84061696353 84.68114285714245 L 348.17737789313 82.99028571428613 L 350.51413881323 78.09371428571416 L 352.85089974283 73.80685714285721 L 355.18766067244 81.41885714285758 L 357.52442159253 79.87257142857123 L 359.86118252214 78.78514285714294 L 362.19794344224 79.98571428571427 L 364.53470437184 79.501714285714 L 366.87146529194 78.47714285714306 L 369.20822622154 73.17828571428578 L 371.54498715115 77.82971428571409 L 373.88174807125 84.78799999999961 L 376.21850900085 85.12742857142877 L 378.55526992095 85.21542857142839 L 380.89203085055 84.19085714285745 L 383.22879177065 85.98857142857099 L 385.56555270026 85.16514285714271 L 387.90231362035 86.37828571428577 L 390.23907454996 83.2354285714286 L 392.57583547956 79.11828571428623 L 394.91259639966 81.80228571428535 L 397.24935732926 87.93085714285678 L 399.58611824936 89.13771428571397 L 401.92287917897 95.54285714285714 L 404.25964009906 98.04457142857115 L 406.59640102867 94.46171428571472 L 408.93316195827 98.03199999999944 L 411.26992287837 93.66342857142871 L 413.60668380798 87.42800000000011 L 415.94344472807 86.28400000000028 L 418.28020565768 87.42800000000011 L 420.61696657777 86.44742857142899 L 422.95372750738 86.93142857142811 L 425.29048842748 86.34057142857182 L 427.62724935708 92.28685714285695 L 429.96401028669 95.44857142857165 L 432.30077120678 90.54571428571381 L 434.63753213639 90.67142857142858 L 436.97429305649 89.62171428571423 L 439.31105398609 92.93428571428592 L 441.64781490619 92.38114285714244 L 443.98457583579 87.10114285714269 L 446.3213367654 88.01885714285754 L 448.6580976855 86.86228571428603 L 450.9948586151 84.39200000000017 L 453.3316195352 81.49428571428547 L 455.6683804648 78.10628571428583 L 458.0051413849 76.6417142857145 L 460.3419023145 74.81885714285755 L 462.6786632346 77.06914285714322 L 465.01542416421 77.82971428571409 L 467.35218509381 77.01257142857173 L 469.68894601391 84.81314285714302 L 472.02570694351 83.73828571428533 L 474.36246786361 84.63085714285677 L 476.69922879322 83.85142857142836 L 479.03598971331 83.80742857142855 L 481.37275064292 85.62399999999957 L 483.70951157252 82.98400000000026 L 486.04627249262 81.92171428571424 L 488.38303342223 82.85199999999969 L 490.71979434232 78.65314285714237 L 493.05655527193 81.74571428571386 L 495.39331619202 81.82742857142875 L 497.73007712163 82.78914285714234 L 500.06683804173 82.2422857142858 L 502.40359897133 84.02742857142874 L 504.74035990094 80.2748571428566 L 507.07712082103 83.92057142857158 L 509.41388175064 81.82114285714289 L 511.75064267074 80.46971428571459 L 514.08740360034 85.80000000000001 L 516.42416452044 81.68914285714231 L 518.76092545004 79.67142857142858 L 521.09768637965 72.39885714285731 L 523.43444729974 66.79200000000014 L 525.77120822935 65.40914285714257 L 528.10796914945 66.35828571428556 L 530.44473007905 62.85085714285702 L 532.78149099915 62.56800000000055 L 535.11825192875 61.618857142857564 L 537.45501284885 59.14228571428583 L 539.79177377846 60.07257142857128 L 542.12853470806 53.95657142857152 L 544.46529562816 53.5102857142852 L 546.80205655776 54.182857142857586 L 549.13881747786 54.924571428570914 L 551.47557840747 54.729714285714124 L 553.81233932756 56.32628571428609 L 556.14910025717 57.42628571428611 L 558.48586118677 56.879428571428434 L 560.82262210687 56.54628571428515 L 563.15938303647 54.082285714286286 L 565.49614395657 52.80628571428588 L 567.83290488618 52.22800000000012 L 570.16966580627 51.379428571428434 L 572.50642673588 52.1211428571429 L 574.84318765598 57.514285714285734 L 577.17994858558 57.57714285714309 L 579.51670951519 54.05085714285701 L 581.85347043528 53.06400000000008 L 584.19023136489 51.09657142857196 L 586.52699228498 54.61657142857109 L 588.86375321459 58.15542857142884 L 591.20051413469 58.7337142857146 L 593.53727506429 61.85771428571422 L 595.8740359939 63.09599999999949 L 598.21079691399 59.41257142857171 L 600.5475578436 59.092000000000155 L 602.8843187637 59.43771428571398 L 605.2210796933 58.0171428571424 L 607.5578406134 56.7662857142854 L 609.894601543 58.425714285714776 L 612.23136247261 58.32514285714342 L 614.56812339271 58.14914285714298 L 616.90488432231 57.17485714285658 L 619.24164524241 54.15771428571418 L 621.57840617201 55.7354285714286 L 623.91516709211 54.082285714286286 L 626.25192802171 53.265142857142735 L 628.58868894181 51.8822857142863 L 630.92544987142 55.82342857142828 L 633.26221080102 55.68514285714298 L 635.59897172112 52.73714285714266 L 637.93573265072 51.35428571428616 L 640.27249357082 52.98857142857099 L 642.60925450043 57.26914285714321 L 644.94601542052 57.3634285714287 L 647.28277635013 54.70457142857185 L 649.61953727973 51.706285714285855 L 651.95629819983 50.96457142857139 L 654.29305912943 46.68400000000025 L 656.62982004953 47.004571428571865 L 658.96658097914 43.7422857142858 L 661.30334189923 47.17428571428525 L 663.64010282884 48.45657142857152 L 665.97686374894 48.70171428571399 L 668.31362467854 47.11771428571376 L 670.65038560815 48.93428571428598 L 672.98714652824 49.21714285714239 L 675.32390745785 49.53142857142814 L 677.66066837795 46.99200000000013 L 679.99742930755 43.6417142857145 L 682.33419022765 44.10057142857136 L 684.67095115725 42.856000000000165 L 687.00771208686 43.33371428571462 L 689.34447300695 41.441714285714454 L 691.68123393656 42.42228571428558 L 694.01799485666 40.8822857142863 L 696.35475578626 34.69714285714332 L 698.69151670636 33.69771428571465 L 701.02827763596 35.28799999999961 L 703.36503855606 37.431428571428114 L 705.70179948567 36.5137142857144 L 708.03856041527 34.250857142857 L 710.37532133537 33.6348571428573 L 712.71208226497 27.02857142857141 L 715.04884318507 29.951428571428323 L 717.38560411467 29.66857142857191 L 719.72236503477 28.669142857143243 L 722.05912596438 26.82114285714289 L 724.39588689398 25.02342857142827 L 726.73264781408 23.634285714285966 L 729.06940874368 24.042857142857144 L 731.40616966378 27.638285714285303 L 733.74293059339 25.406857142857177 L 736.07969151348 23.030857142856803 L 738.41645244309 22.301714285714013 L 740.75321336319 23.91714285714238 L 743.08997429279 24.03657142857128 L 745.4267352224 25.293714285714145 L 747.76349614249 30.114857142857034 L 750.1002570721 27.66342857142871 L 752.43701799219 27.764000000000067 L 754.7737789218 26.31828571428622 L 757.1105398419 28.08457142857162 L 759.4473007715 28.436571428571312 L 761.78406170111 29.95771428571419 L 764.1208226212 29.63085714285677 L 766.45758355081 29.228571428571456 L 768.79434447091 27.7577142857142 L 771.13110540051 28.147428571428975 L 773.46786632061 30.334857142857288 L 775.80462725021 28.41142857142904 L 778.14138817031 33.19485714285685 L 780.47814909991 32.27085714285727 L 782.81491002952 29.065142857142746 L 785.15167094962 24.797142857143342 L 787.48843187922 24.33828571428529 L 789.82519279932 23.74114285714313 L 792.16195372892 21.748571428571665 L 794.49871464902 25.3565714285715 L 796.83547557863 28.89542857142817 L 799.17223650823 30.347428571428964 L 801.50899742833 32.13885714285664 L 803.84575835793 30.165142857142712 L 806.18251927803 30.001714285714 L 808.51928020764 28.574857142856615 L 810.85604112773 30.843999999999824 L 813.19280205734 30.831428571428148 L 815.52956297743 30.21542857142839 L 817.86632390704 27.31771428571375 L 820.20308483664 28.687999999999647 L 822.53984575674 28.00285714285667 L 824.87660668635 25.32514285714342 L 827.21336760644 22.056571428571544 L 829.55012853605 22.641142857143166 L 831.88688945615 21.779999999999802 L 834.22365038575 21.604000000000497 L 836.56041131536 16.952571428571048 L 838.89717223545 16.952571428571048 L 841.23393316506 14.501142857142668 L 843.57069408515 16.99028571428613 L 845.90745501476 18.14685714285764 L 848.24421593486 20.931428571428114 L 850.58097686446 22.113142857143032 L 852.91773778456 22.47142857142859 L 855.25449871416 21.05714285714288 L 857.59125964377 17.430285714285446 L 859.92802056387 14.526285714286075 L 862.26478149347 13.97314285714259 L 864.60154241357 14.658285714285512 L 866.93830334317 14.52000000000021 L 869.27506426327 20.02000000000021 L 871.61182519288 22.74800000000033 L 873.94858612248 23.665714285714046 L 876.28534704258 22.440000000000452 L 878.62210797218 22.6348571428573 L 880.95886889228 21.23942857142913 L 883.29562982188 23.433142857143253 L 885.63239074198 23.709714285713858 L 887.96915167159 25.689714285714786 L 890.30591259168 29.03371428571461 L 892.64267352129 31.617142857142426 L 894.97943445089 35.43885714285665 L 897.31619537099 42.51657142857107 L 899.6529563006 39.91428571428571 L 901.98971722069 40.19085714285745 L 904.3264781503 41.78742857142828 L 906.66323907039 42.076571428571754 L 909 43.15771428571418" class="highcharts-graph" data-z-index="1"></path><path d="M -10 259.8577142857142 L 0 259.8577142857142 L 2.336760929605 242.32057142857155 L 4.6735218497021 238.75028571428567 L 7.0102827793071 240.44114285714312 L 9.3470436994042 253.86742857142806 L 11.683804629009 259.3988571428573 L 14.020565549106 254.2760000000004 L 16.357326478711 270.8577142857142 L 18.694087408316 268.23028571428546 L 21.030848328413 277.88514285714297 L 23.367609258018 290.1799999999998 L 25.704370178115 276.75999999999954 L 28.04113110772 274.84285714285716 L 30.377892027818 268.7205714285716 L 32.714652957423 271.1719999999999 L 35.05141387752 251.89371428571417 L 37.388174807125 244.58342857142895 L 39.72493573673 252.27085714285724 L 42.061696656827 247.7577142857142 L 44.398457586432 266.9668571428567 L 46.735218506529 264.8045714285719 L 49.071979436134 257.8902857142861 L 51.408740356231 270.2731428571426 L 53.745501285836 264.5405714285718 L 56.082262215441 263.2645714285714 L 58.419023135538 265.69085714285745 L 60.755784065143 278.2874285714283 L 63.09254498524 275.22000000000025 L 65.429305914845 262.2022857142854 L 67.766066834942 260.8382857142853 L 70.102827764547 266.3194285714289 L 72.439588684644 270.48685714285693 L 74.776349614249 270.09085714285743 L 77.113110543854 283.02057142857154 L 79.449871463951 279.0857142857143 L 81.786632393556 278.5640000000001 L 84.123393313653 280.3805714285711 L 86.460154243258 290.23028571428546 L 88.796915163356 287.9422857142858 L 91.13367609296 282.0211428571429 L 93.470437022565 277.2942857142855 L 95.807197942663 274.2771428571431 L 98.143958872268 264.8297142857141 L 100.48071979236 248.8702857142859 L 102.81748072197 250.15885714285687 L 105.15424164207 244.09942857142866 L 107.49100257167 251.26514285714273 L 109.82776349177 248.0971428571433 L 112.16452442137 248.6565714285715 L 114.50128535098 255.68400000000028 L 116.83804627108 262.0451428571425 L 119.17480720068 257.0102857142852 L 121.51156812078 244.6085714285712 L 123.84832905038 232.8857142857143 L 126.18508997048 223.07999999999979 L 128.52185090009 220.77314285714257 L 130.85861182969 217.63028571428544 L 133.19537274979 217.02057142857157 L 135.53213367939 217.6239999999996 L 137.86889459949 209.81714285714241 L 140.20565552909 200.52057142857157 L 142.54241644919 195.44800000000032 L 144.8791773788 191.7959999999995 L 147.21593829889 188.7788571428571 L 149.5526992285 191.27428571428527 L 151.8894601581 190.17428571428525 L 154.2262210782 191.40628571428584 L 156.56298200781 191.19885714285732 L 158.8997429279 188.32000000000022 L 161.23650385751 187.38342857142894 L 163.5732647776 189.7280000000001 L 165.91002570721 186.76742857142807 L 168.24678663681 195.91314285714304 L 170.58354755691 191.91542857142838 L 172.92030848652 186.98114285714246 L 175.25706940661 184.64285714285714 L 177.59383033622 188.72857142857143 L 179.93059125632 177.64685714285764 L 182.26735218592 178.08057142857112 L 184.60411310602 183.64342857142847 L 186.94087403562 181.26742857142807 L 189.27763496523 180.21142857142902 L 191.61439588533 182.89542857142817 L 193.95115681493 185.1959999999995 L 196.28791773503 190.62057142857157 L 198.62467866463 189.64000000000047 L 200.96143958473 197.32742857142875 L 203.29820051433 192.6382857142853 L 205.63496144394 190.43199999999945 L 207.97172236404 183.06514285714272 L 210.30848329364 180.31200000000038 L 212.64524421374 180.2365714285713 L 214.98200514334 176.82342857142825 L 217.31876606344 181.4057142857145 L 219.65552699305 164.849142857143 L 221.99228791314 168.7085714285712 L 224.32904884275 166.06228571428605 L 226.66580977235 163.79942857142868 L 229.00257069245 159.2297142857141 L 231.33933162205 158.5194285714289 L 233.67609254215 156.54571428571384 L 236.01285347176 159.36800000000056 L 238.34961439185 157.80914285714255 L 240.68637532146 157.8971428571433 L 243.02313625106 162.53599999999994 L 245.35989717116 162.59885714285733 L 247.69665810077 163.4788571428571 L 250.03341902086 157.35657142857153 L 252.37017995047 161.59942857142866 L 254.70694087057 167.7028571428567 L 257.04370180017 168.60799999999986 L 259.38046272027 167.49542857142816 L 261.71722364987 166.43942857142912 L 264.05398457948 168.2874285714283 L 266.39074549957 163.9 L 268.72750642918 163.12685714285743 L 271.06426734928 157.43199999999945 L 273.40102827888 154.77314285714257 L 275.73778919898 146.09885714285733 L 278.07455012858 157.52000000000024 L 280.41131105819 148.31142857142902 L 282.74807197829 146.45714285714286 L 285.08483290789 140.57371428571392 L 287.42159382799 130.76800000000054 L 289.75835475759 127.59371428571416 L 292.09511567769 126.04742857142898 L 294.43187660729 122.05600000000018 L 296.76863752739 119.58571428571429 L 299.105398457 118.05199999999968 L 301.4421593866 118.19028571428612 L 303.7789203067 112.61485714285706 L 306.1156812363 112.36971428571456 L 308.4524421564 105.92057142857158 L 310.78920308601 104.40571428571451 L 313.1259640061 109.51599999999974 L 315.46272493571 112.58342857142895 L 317.79948586531 109.2519999999997 L 320.13624678541 110.65371428571484 L 322.47300771502 105.84514285714249 L 324.80976863511 101.53942857142911 L 327.14652956472 105.67542857142908 L 329.48329048481 104.68228571428628 L 331.82005141442 102.07371428571392 L 334.15681234402 102.72742857142876 L 336.49357326412 99.57828571428576 L 338.83033419373 99.42114285714291 L 341.16709511382 91.84685714285763 L 343.50385604343 84.22857142857146 L 345.84061696353 84.68114285714245 L 348.17737789313 82.99028571428613 L 350.51413881323 78.09371428571416 L 352.85089974283 73.80685714285721 L 355.18766067244 81.41885714285758 L 357.52442159253 79.87257142857123 L 359.86118252214 78.78514285714294 L 362.19794344224 79.98571428571427 L 364.53470437184 79.501714285714 L 366.87146529194 78.47714285714306 L 369.20822622154 73.17828571428578 L 371.54498715115 77.82971428571409 L 373.88174807125 84.78799999999961 L 376.21850900085 85.12742857142877 L 378.55526992095 85.21542857142839 L 380.89203085055 84.19085714285745 L 383.22879177065 85.98857142857099 L 385.56555270026 85.16514285714271 L 387.90231362035 86.37828571428577 L 390.23907454996 83.2354285714286 L 392.57583547956 79.11828571428623 L 394.91259639966 81.80228571428535 L 397.24935732926 87.93085714285678 L 399.58611824936 89.13771428571397 L 401.92287917897 95.54285714285714 L 404.25964009906 98.04457142857115 L 406.59640102867 94.46171428571472 L 408.93316195827 98.03199999999944 L 411.26992287837 93.66342857142871 L 413.60668380798 87.42800000000011 L 415.94344472807 86.28400000000028 L 418.28020565768 87.42800000000011 L 420.61696657777 86.44742857142899 L 422.95372750738 86.93142857142811 L 425.29048842748 86.34057142857182 L 427.62724935708 92.28685714285695 L 429.96401028669 95.44857142857165 L 432.30077120678 90.54571428571381 L 434.63753213639 90.67142857142858 L 436.97429305649 89.62171428571423 L 439.31105398609 92.93428571428592 L 441.64781490619 92.38114285714244 L 443.98457583579 87.10114285714269 L 446.3213367654 88.01885714285754 L 448.6580976855 86.86228571428603 L 450.9948586151 84.39200000000017 L 453.3316195352 81.49428571428547 L 455.6683804648 78.10628571428583 L 458.0051413849 76.6417142857145 L 460.3419023145 74.81885714285755 L 462.6786632346 77.06914285714322 L 465.01542416421 77.82971428571409 L 467.35218509381 77.01257142857173 L 469.68894601391 84.81314285714302 L 472.02570694351 83.73828571428533 L 474.36246786361 84.63085714285677 L 476.69922879322 83.85142857142836 L 479.03598971331 83.80742857142855 L 481.37275064292 85.62399999999957 L 483.70951157252 82.98400000000026 L 486.04627249262 81.92171428571424 L 488.38303342223 82.85199999999969 L 490.71979434232 78.65314285714237 L 493.05655527193 81.74571428571386 L 495.39331619202 81.82742857142875 L 497.73007712163 82.78914285714234 L 500.06683804173 82.2422857142858 L 502.40359897133 84.02742857142874 L 504.74035990094 80.2748571428566 L 507.07712082103 83.92057142857158 L 509.41388175064 81.82114285714289 L 511.75064267074 80.46971428571459 L 514.08740360034 85.80000000000001 L 516.42416452044 81.68914285714231 L 518.76092545004 79.67142857142858 L 521.09768637965 72.39885714285731 L 523.43444729974 66.79200000000014 L 525.77120822935 65.40914285714257 L 528.10796914945 66.35828571428556 L 530.44473007905 62.85085714285702 L 532.78149099915 62.56800000000055 L 535.11825192875 61.618857142857564 L 537.45501284885 59.14228571428583 L 539.79177377846 60.07257142857128 L 542.12853470806 53.95657142857152 L 544.46529562816 53.5102857142852 L 546.80205655776 54.182857142857586 L 549.13881747786 54.924571428570914 L 551.47557840747 54.729714285714124 L 553.81233932756 56.32628571428609 L 556.14910025717 57.42628571428611 L 558.48586118677 56.879428571428434 L 560.82262210687 56.54628571428515 L 563.15938303647 54.082285714286286 L 565.49614395657 52.80628571428588 L 567.83290488618 52.22800000000012 L 570.16966580627 51.379428571428434 L 572.50642673588 52.1211428571429 L 574.84318765598 57.514285714285734 L 577.17994858558 57.57714285714309 L 579.51670951519 54.05085714285701 L 581.85347043528 53.06400000000008 L 584.19023136489 51.09657142857196 L 586.52699228498 54.61657142857109 L 588.86375321459 58.15542857142884 L 591.20051413469 58.7337142857146 L 593.53727506429 61.85771428571422 L 595.8740359939 63.09599999999949 L 598.21079691399 59.41257142857171 L 600.5475578436 59.092000000000155 L 602.8843187637 59.43771428571398 L 605.2210796933 58.0171428571424 L 607.5578406134 56.7662857142854 L 609.894601543 58.425714285714776 L 612.23136247261 58.32514285714342 L 614.56812339271 58.14914285714298 L 616.90488432231 57.17485714285658 L 619.24164524241 54.15771428571418 L 621.57840617201 55.7354285714286 L 623.91516709211 54.082285714286286 L 626.25192802171 53.265142857142735 L 628.58868894181 51.8822857142863 L 630.92544987142 55.82342857142828 L 633.26221080102 55.68514285714298 L 635.59897172112 52.73714285714266 L 637.93573265072 51.35428571428616 L 640.27249357082 52.98857142857099 L 642.60925450043 57.26914285714321 L 644.94601542052 57.3634285714287 L 647.28277635013 54.70457142857185 L 649.61953727973 51.706285714285855 L 651.95629819983 50.96457142857139 L 654.29305912943 46.68400000000025 L 656.62982004953 47.004571428571865 L 658.96658097914 43.7422857142858 L 661.30334189923 47.17428571428525 L 663.64010282884 48.45657142857152 L 665.97686374894 48.70171428571399 L 668.31362467854 47.11771428571376 L 670.65038560815 48.93428571428598 L 672.98714652824 49.21714285714239 L 675.32390745785 49.53142857142814 L 677.66066837795 46.99200000000013 L 679.99742930755 43.6417142857145 L 682.33419022765 44.10057142857136 L 684.67095115725 42.856000000000165 L 687.00771208686 43.33371428571462 L 689.34447300695 41.441714285714454 L 691.68123393656 42.42228571428558 L 694.01799485666 40.8822857142863 L 696.35475578626 34.69714285714332 L 698.69151670636 33.69771428571465 L 701.02827763596 35.28799999999961 L 703.36503855606 37.431428571428114 L 705.70179948567 36.5137142857144 L 708.03856041527 34.250857142857 L 710.37532133537 33.6348571428573 L 712.71208226497 27.02857142857141 L 715.04884318507 29.951428571428323 L 717.38560411467 29.66857142857191 L 719.72236503477 28.669142857143243 L 722.05912596438 26.82114285714289 L 724.39588689398 25.02342857142827 L 726.73264781408 23.634285714285966 L 729.06940874368 24.042857142857144 L 731.40616966378 27.638285714285303 L 733.74293059339 25.406857142857177 L 736.07969151348 23.030857142856803 L 738.41645244309 22.301714285714013 L 740.75321336319 23.91714285714238 L 743.08997429279 24.03657142857128 L 745.4267352224 25.293714285714145 L 747.76349614249 30.114857142857034 L 750.1002570721 27.66342857142871 L 752.43701799219 27.764000000000067 L 754.7737789218 26.31828571428622 L 757.1105398419 28.08457142857162 L 759.4473007715 28.436571428571312 L 761.78406170111 29.95771428571419 L 764.1208226212 29.63085714285677 L 766.45758355081 29.228571428571456 L 768.79434447091 27.7577142857142 L 771.13110540051 28.147428571428975 L 773.46786632061 30.334857142857288 L 775.80462725021 28.41142857142904 L 778.14138817031 33.19485714285685 L 780.47814909991 32.27085714285727 L 782.81491002952 29.065142857142746 L 785.15167094962 24.797142857143342 L 787.48843187922 24.33828571428529 L 789.82519279932 23.74114285714313 L 792.16195372892 21.748571428571665 L 794.49871464902 25.3565714285715 L 796.83547557863 28.89542857142817 L 799.17223650823 30.347428571428964 L 801.50899742833 32.13885714285664 L 803.84575835793 30.165142857142712 L 806.18251927803 30.001714285714 L 808.51928020764 28.574857142856615 L 810.85604112773 30.843999999999824 L 813.19280205734 30.831428571428148 L 815.52956297743 30.21542857142839 L 817.86632390704 27.31771428571375 L 820.20308483664 28.687999999999647 L 822.53984575674 28.00285714285667 L 824.87660668635 25.32514285714342 L 827.21336760644 22.056571428571544 L 829.55012853605 22.641142857143166 L 831.88688945615 21.779999999999802 L 834.22365038575 21.604000000000497 L 836.56041131536 16.952571428571048 L 838.89717223545 16.952571428571048 L 841.23393316506 14.501142857142668 L 843.57069408515 16.99028571428613 L 845.90745501476 18.14685714285764 L 848.24421593486 20.931428571428114 L 850.58097686446 22.113142857143032 L 852.91773778456 22.47142857142859 L 855.25449871416 21.05714285714288 L 857.59125964377 17.430285714285446 L 859.92802056387 14.526285714286075 L 862.26478149347 13.97314285714259 L 864.60154241357 14.658285714285512 L 866.93830334317 14.52000000000021 L 869.27506426327 20.02000000000021 L 871.61182519288 22.74800000000033 L 873.94858612248 23.665714285714046 L 876.28534704258 22.440000000000452 L 878.62210797218 22.6348571428573 L 880.95886889228 21.23942857142913 L 883.29562982188 23.433142857143253 L 885.63239074198 23.709714285713858 L 887.96915167159 25.689714285714786 L 890.30591259168 29.03371428571461 L 892.64267352129 31.617142857142426 L 894.97943445089 35.43885714285665 L 897.31619537099 42.51657142857107 L 899.6529563006 39.91428571428571 L 901.98971722069 40.19085714285745 L 904.3264781503 41.78742857142828 L 906.66323907039 42.076571428571754 L 909 43.15771428571418 L 919 43.15771428571418" visibility="visible" data-z-index="2" class="highcharts-tracker-line"></path></g><g data-z-index="0.1" class="highcharts-markers highcharts-series-0 highcharts-area-series highcharts-color-0 highcharts-tracker" transform="translate(0,10) scale(1 1)"></g><g data-z-index="0.1" class="highcharts-series highcharts-series-1 highcharts-line-series highcharts-color-1" visibility="hidden" transform="translate(0,10) scale(1 1)" clip-path="url(#highcharts-yodzdt2-3-)"></g><g data-z-index="0.1" class="highcharts-markers highcharts-series-1 highcharts-line-series highcharts-color-1" visibility="hidden" transform="translate(0,10) scale(1 1)" clip-path="url(#highcharts-yodzdt2-2-)"></g></g><text x="480" text-anchor="middle" class="highcharts-title" data-z-index="4" y="24"></text><text x="480" text-anchor="middle" class="highcharts-subtitle" data-z-index="4" y="24"></text><text x="10" text-anchor="start" class="highcharts-caption" data-z-index="4" y="397"></text><g class="highcharts-plot-lines-5" data-z-index="5"><path class="highcharts-plot-line "></path></g><g class="highcharts-axis-labels highcharts-xaxis-labels" data-z-index="7"></g><g class="highcharts-axis-labels highcharts-yaxis-labels" data-z-index="7"></g><g class="highcharts-tooltip highcharts-tooltip-0" data-z-index="8" opacity="0" visibility="visible" y="-9999"><g class="highcharts-label highcharts-tooltip-box highcharts-color-0" transform="translate(586,39)"><path class="highcharts-label-box" d="M 3 0 L 69 0 C 72 0 72 0 72 3 L 72 13.456571428571522 78 19.45657142857152 72 25.45657142857152 72 34 C 72 37 72 37 69 37 L 3 37 C 0 37 0 37 0 34 L 0 3 C 0 0 0 0 3 0"></path></g></g></svg>
