<svg xmlns="http://www.w3.org/2000/svg" xmlns:xlink="http://www.w3.org/1999/xlink" version="1.1" width="24" height="24" viewBox="0 0 256 256" xml:space="preserve">
<defs>
</defs>
<g style="stroke: none; stroke-width: 0; stroke-dasharray: none; stroke-linecap: butt; stroke-linejoin: miter; stroke-miterlimit: 10; fill: #338C81; fill-rule: nonzero; opacity: 1;" transform="translate(1.4065934065934016 1.4065934065934016) scale(2.81 2.81)" >
	<path d="M 52.928 45.43 c -1.91 0 -3.468 1.558 -3.468 3.468 c 0 1.91 1.558 3.468 3.468 3.468 l -0.026 0.129 c 0.061 0 0.112 0 0.172 0 c 1.91 -0.078 3.399 -1.687 3.322 -3.598 C 56.396 46.988 54.838 45.43 52.928 45.43 z" style="stroke: none; stroke-width: 1; stroke-dasharray: none; stroke-linecap: butt; stroke-linejoin: miter; stroke-miterlimit: 10; fill: #338C81; fill-rule: nonzero; opacity: 1;" transform=" matrix(1 0 0 1 0 0) " stroke-linecap="round" />
	<path d="M 40.371 48.778 c 0 -1.91 -1.558 -3.468 -3.468 -3.468 s -3.468 1.558 -3.468 3.468 s 1.55 3.451 3.468 3.468 C 38.813 52.246 40.371 50.688 40.371 48.778 z" style="stroke: none; stroke-width: 1; stroke-dasharray: none; stroke-linecap: butt; stroke-linejoin: miter; stroke-miterlimit: 10; fill: #338C81; fill-rule: nonzero; opacity: 1;" transform=" matrix(1 0 0 1 0 0) " stroke-linecap="round" />
	<path d="M 52.195 57.049 c -2.108 1.506 -4.656 2.246 -7.238 2.108 c -2.581 0.121 -5.12 -0.654 -7.203 -2.177 c -0.353 -0.284 -0.844 -0.284 -1.188 0 c -0.396 0.327 -0.456 0.92 -0.129 1.316 c 2.462 1.85 5.473 2.797 8.555 2.668 c 3.081 0.128 6.094 -0.818 8.555 -2.668 v 0.138 c 0.379 -0.37 0.387 -0.989 0.017 -1.368 C 53.193 56.687 52.574 56.679 52.195 57.049 z" style="stroke: none; stroke-width: 1; stroke-dasharray: none; stroke-linecap: butt; stroke-linejoin: miter; stroke-miterlimit: 10; fill: #338C81; fill-rule: nonzero; opacity: 1;" transform=" matrix(1 0 0 1 0 0) " stroke-linecap="round" />
	<path d="M 88.695 40.131 L 71.064 9.593 c -1.739 -3.013 -4.954 -4.869 -8.433 -4.869 H 27.369 c -3.479 0 -6.693 1.856 -8.433 4.869 L 1.305 40.131 c -1.739 3.013 -1.739 6.725 0 9.737 l 17.631 30.538 c 1.739 3.013 4.954 4.869 8.433 4.869 h 35.263 c 3.479 0 6.693 -1.856 8.433 -4.869 l 17.631 -30.538 C 90.435 46.856 90.435 43.144 88.695 40.131 z M 65.26 49.914 c 0.035 0.508 0.035 1.016 0 1.523 c 0 7.762 -9.036 14.062 -20.181 14.062 s -20.181 -6.308 -20.181 -14.062 c -0.035 -0.508 -0.035 -1.016 0 -1.523 c -0.508 -0.224 -0.963 -0.542 -1.359 -0.913 c -2.04 -1.91 -2.134 -5.112 -0.224 -7.143 c 1.91 -2.04 5.112 -2.134 7.143 -0.224 c 3.993 -2.702 8.683 -4.182 13.503 -4.26 l 2.556 -12.014 c 0 -0.008 0 -0.008 0 -0.017 c 0.129 -0.586 0.706 -0.947 1.283 -0.818 l 8.486 1.696 c 0.542 -0.947 1.523 -1.584 2.616 -1.696 c 1.902 -0.207 3.605 1.17 3.812 3.072 s -1.17 3.606 -3.072 3.812 c -1.902 0.207 -3.606 -1.17 -3.812 -3.072 l -7.41 -1.558 l -2.246 10.801 c 4.759 0.103 9.39 1.575 13.331 4.26 c 0.895 -0.852 2.073 -1.359 3.313 -1.403 c 2.797 -0.095 5.138 2.083 5.241 4.871 C 68.092 47.255 66.998 49.045 65.26 49.914 z" style="stroke: none; stroke-width: 1; stroke-dasharray: none; stroke-linecap: butt; stroke-linejoin: miter; stroke-miterlimit: 10; fill: #338C81; fill-rule: nonzero; opacity: 1;" transform=" matrix(1 0 0 1 0 0) " stroke-linecap="round" />
</g>
</svg>
